<svg width="442" height="442" viewBox="0 0 442 442" fill="none" xmlns="http://www.w3.org/2000/svg">
<g clip-path="url(#clip0_190_143)">
<circle cx="221" cy="221" r="221" fill="#2F6FEB"/>
<path d="M186.343 350.343C215.014 358.023 245.424 355.964 272.799 344.489C300.173 333.014 322.961 312.772 337.585 286.942M186.343 350.343C157.672 342.659 132.366 325.67 114.396 302.045C96.4269 278.42 86.8126 249.496 87.0628 219.815M186.343 350.343C222.056 359.912 266.533 309.755 285.671 238.329C304.81 166.903 291.37 101.227 255.657 91.6573M186.343 350.343C150.63 340.773 137.19 275.097 156.329 203.671C175.467 132.245 219.944 82.088 255.657 91.6573M337.585 286.942C343.017 277.307 347.347 266.838 350.343 255.657C356.339 233.421 356.471 210.011 350.728 187.709M337.585 286.942C293.566 297.919 247.474 297.482 203.671 285.671C158.229 273.495 118.67 250.342 87.0628 219.815M87.0628 219.815C87.1773 208.509 88.721 197.262 91.6572 186.343C97.8378 163.277 109.681 143.222 125.298 127.305M255.657 91.6573C278.6 97.7945 299.497 109.925 316.204 126.805C332.911 143.684 344.826 164.704 350.728 187.709M255.657 91.6573C232.72 85.5009 208.557 85.5579 185.649 91.8224C162.74 98.0869 141.911 110.333 125.298 127.305M350.728 187.709C312.174 206.428 268.157 210.595 226.776 199.443C183.691 187.898 148.52 161.531 125.298 127.305" stroke="white" stroke-width="15.5" stroke-linecap="round" stroke-linejoin="round"/>
</g>
<defs>
<clipPath id="clip0_190_143">
<rect width="442" height="442" fill="white"/>
</clipPath>
</defs>
</svg>
